<mxfile host="65bd71144e">
    <diagram id="Zq1IKf7wHUTUgm-78xo2" name="General">
        <mxGraphModel dx="2195" dy="613" grid="1" gridSize="10" guides="1" tooltips="1" connect="1" arrows="1" fold="1" page="1" pageScale="1" pageWidth="850" pageHeight="1100" math="0" shadow="0">
            <root>
                <mxCell id="0"/>
                <mxCell id="1" parent="0"/>
                <mxCell id="7LGnQDUB8Bs0BVyokrP1-1" value="" style="group" parent="1" vertex="1" connectable="0">
                    <mxGeometry x="-810" y="720" width="580" height="310" as="geometry"/>
                </mxCell>
                <mxCell id="7LGnQDUB8Bs0BVyokrP1-2" value="" style="rounded=0;whiteSpace=wrap;html=1;fillColor=none;dashed=1;" parent="7LGnQDUB8Bs0BVyokrP1-1" vertex="1">
                    <mxGeometry width="580" height="310" as="geometry"/>
                </mxCell>
                <mxCell id="7LGnQDUB8Bs0BVyokrP1-3" value="Dữ liệu huấn luyện&lt;br&gt;(có gán nhãn)" style="rounded=0;whiteSpace=wrap;html=1;fillColor=#f5f5f5;gradientColor=#b3b3b3;strokeColor=#666666;fontStyle=1;fontColor=#0a0a0a;" parent="7LGnQDUB8Bs0BVyokrP1-1" vertex="1">
                    <mxGeometry x="30" y="20" width="120" height="60" as="geometry"/>
                </mxCell>
                <mxCell id="7LGnQDUB8Bs0BVyokrP1-4" value="Xây dựng model&lt;br&gt;(Tham số, chu kỳ)" style="rounded=0;whiteSpace=wrap;html=1;fillColor=#f5f5f5;strokeColor=#666666;fontColor=#0a0a0a;gradientColor=#b3b3b3;fontStyle=1;" parent="7LGnQDUB8Bs0BVyokrP1-1" vertex="1">
                    <mxGeometry x="395" y="20" width="150" height="60" as="geometry"/>
                </mxCell>
                <mxCell id="7LGnQDUB8Bs0BVyokrP1-5" value="Huấn luyện mô hình" style="whiteSpace=wrap;html=1;rounded=0;fillColor=#f5f5f5;strokeColor=#666666;fontColor=#0a0a0a;gradientColor=#b3b3b3;fontStyle=1;" parent="7LGnQDUB8Bs0BVyokrP1-1" vertex="1">
                    <mxGeometry x="227.5" y="110" width="135" height="60" as="geometry"/>
                </mxCell>
                <mxCell id="7LGnQDUB8Bs0BVyokrP1-6" style="edgeStyle=orthogonalEdgeStyle;html=1;entryX=0.25;entryY=0;entryDx=0;entryDy=0;" parent="7LGnQDUB8Bs0BVyokrP1-1" source="7LGnQDUB8Bs0BVyokrP1-3" target="7LGnQDUB8Bs0BVyokrP1-5" edge="1">
                    <mxGeometry relative="1" as="geometry"/>
                </mxCell>
                <mxCell id="7LGnQDUB8Bs0BVyokrP1-7" style="edgeStyle=orthogonalEdgeStyle;html=1;entryX=0.75;entryY=0;entryDx=0;entryDy=0;" parent="7LGnQDUB8Bs0BVyokrP1-1" source="7LGnQDUB8Bs0BVyokrP1-4" target="7LGnQDUB8Bs0BVyokrP1-5" edge="1">
                    <mxGeometry relative="1" as="geometry"/>
                </mxCell>
                <mxCell id="7LGnQDUB8Bs0BVyokrP1-8" value="Model TrashNet&lt;br&gt;(YoloV8)" style="whiteSpace=wrap;html=1;rounded=0;fillColor=#f8cecc;gradientColor=#ea6b66;strokeColor=#b85450;fontStyle=1;fontColor=#000000;" parent="7LGnQDUB8Bs0BVyokrP1-1" vertex="1">
                    <mxGeometry x="235" y="220" width="120" height="60" as="geometry"/>
                </mxCell>
                <mxCell id="7LGnQDUB8Bs0BVyokrP1-9" value="Hình ảnh&lt;br&gt;(Từ camera)" style="rounded=0;whiteSpace=wrap;html=1;fillColor=#ffff88;strokeColor=#36393d;fontStyle=1;fontColor=#000000;" parent="7LGnQDUB8Bs0BVyokrP1-1" vertex="1">
                    <mxGeometry x="30" y="220" width="120" height="60" as="geometry"/>
                </mxCell>
                <mxCell id="7LGnQDUB8Bs0BVyokrP1-10" value="Hiển thị kết quả phân loại&lt;br&gt;(Thùng rác thông minh)" style="whiteSpace=wrap;html=1;rounded=0;fillColor=#ffff88;strokeColor=#36393d;fontColor=#000000;fontStyle=1;" parent="7LGnQDUB8Bs0BVyokrP1-1" vertex="1">
                    <mxGeometry x="410" y="220" width="160" height="60" as="geometry"/>
                </mxCell>
                <mxCell id="7LGnQDUB8Bs0BVyokrP1-11" value="" style="edgeStyle=orthogonalEdgeStyle;html=1;" parent="7LGnQDUB8Bs0BVyokrP1-1" source="7LGnQDUB8Bs0BVyokrP1-5" target="7LGnQDUB8Bs0BVyokrP1-8" edge="1">
                    <mxGeometry relative="1" as="geometry"/>
                </mxCell>
                <mxCell id="7LGnQDUB8Bs0BVyokrP1-12" style="edgeStyle=orthogonalEdgeStyle;html=1;" parent="7LGnQDUB8Bs0BVyokrP1-1" source="7LGnQDUB8Bs0BVyokrP1-9" target="7LGnQDUB8Bs0BVyokrP1-8" edge="1">
                    <mxGeometry relative="1" as="geometry"/>
                </mxCell>
                <mxCell id="7LGnQDUB8Bs0BVyokrP1-13" value="" style="edgeStyle=orthogonalEdgeStyle;html=1;" parent="7LGnQDUB8Bs0BVyokrP1-1" source="7LGnQDUB8Bs0BVyokrP1-8" target="7LGnQDUB8Bs0BVyokrP1-10" edge="1">
                    <mxGeometry relative="1" as="geometry"/>
                </mxCell>
            </root>
        </mxGraphModel>
    </diagram>
    <diagram id="s-FV2xCL1C_WF_TJCBdf" name="Detail">
        <mxGraphModel dx="3445" dy="1022" grid="1" gridSize="10" guides="1" tooltips="1" connect="1" arrows="1" fold="1" page="1" pageScale="1" pageWidth="850" pageHeight="1100" math="0" shadow="0">
            <root>
                <mxCell id="0"/>
                <mxCell id="1" parent="0"/>
                <mxCell id="Cm4mgrObaXkl3aYoiadv-97" value="" style="group" parent="1" vertex="1" connectable="0">
                    <mxGeometry x="-580" y="633" width="1380" height="420" as="geometry"/>
                </mxCell>
                <mxCell id="17" value="" style="rounded=0;whiteSpace=wrap;html=1;dashed=1;fillColor=none;" parent="Cm4mgrObaXkl3aYoiadv-97" vertex="1">
                    <mxGeometry width="1380" height="420" as="geometry"/>
                </mxCell>
                <mxCell id="18" value="Camera" style="rounded=0;whiteSpace=wrap;html=1;fillColor=#cdeb8b;strokeColor=#36393d;fontStyle=1;fontColor=#000000;" parent="Cm4mgrObaXkl3aYoiadv-97" vertex="1">
                    <mxGeometry x="20" y="20" width="150" height="100" as="geometry"/>
                </mxCell>
                <mxCell id="47" value="Ghi nhận lịch sử" style="rounded=0;whiteSpace=wrap;html=1;fillColor=#ffff88;strokeColor=#36393d;fontStyle=1;fontColor=#000000;" parent="Cm4mgrObaXkl3aYoiadv-97" vertex="1">
                    <mxGeometry x="530" y="162" width="190" height="88" as="geometry"/>
                </mxCell>
                <mxCell id="Cm4mgrObaXkl3aYoiadv-112" style="edgeStyle=orthogonalEdgeStyle;html=1;fontSize=19;fontColor=#999900;" parent="Cm4mgrObaXkl3aYoiadv-97" source="50" target="54" edge="1">
                    <mxGeometry relative="1" as="geometry"/>
                </mxCell>
                <mxCell id="Cm4mgrObaXkl3aYoiadv-114" style="edgeStyle=orthogonalEdgeStyle;html=1;entryX=1;entryY=0.5;entryDx=0;entryDy=0;fontSize=19;fontColor=#999900;" parent="Cm4mgrObaXkl3aYoiadv-97" source="50" target="56" edge="1">
                    <mxGeometry relative="1" as="geometry"/>
                </mxCell>
                <mxCell id="50" value="Steamlit hiển thị lịch sử&lt;br&gt;" style="rounded=0;whiteSpace=wrap;html=1;fillColor=#ffff88;strokeColor=#36393d;fontColor=#000000;fontStyle=1;" parent="Cm4mgrObaXkl3aYoiadv-97" vertex="1">
                    <mxGeometry x="330" y="162" width="160" height="88" as="geometry"/>
                </mxCell>
                <mxCell id="51" value="" style="edgeStyle=orthogonalEdgeStyle;html=1;fontFamily=Helvetica;fontSize=12;fontColor=default;" parent="Cm4mgrObaXkl3aYoiadv-97" source="47" target="50" edge="1">
                    <mxGeometry relative="1" as="geometry"/>
                </mxCell>
                <mxCell id="54" value="Bổ sung vào tập dữ liệu chưa gán nhãn" style="whiteSpace=wrap;html=1;fillColor=#ffff88;rounded=0;strokeColor=#36393d;fontColor=#000000;fontStyle=1;fontSize=21;" parent="Cm4mgrObaXkl3aYoiadv-97" vertex="1">
                    <mxGeometry x="325" y="300" width="170" height="80" as="geometry"/>
                </mxCell>
                <mxCell id="56" value="Đánh giá đúng" style="whiteSpace=wrap;html=1;fillColor=#ffff88;rounded=0;strokeColor=#36393d;fontColor=#000000;fontStyle=1;fontSize=21;" parent="Cm4mgrObaXkl3aYoiadv-97" vertex="1">
                    <mxGeometry x="20" y="161" width="220" height="90" as="geometry"/>
                </mxCell>
                <mxCell id="21" value="" style="edgeStyle=none;html=1;entryX=0;entryY=0.5;entryDx=0;entryDy=0;" parent="Cm4mgrObaXkl3aYoiadv-97" source="18" target="Cm4mgrObaXkl3aYoiadv-118" edge="1">
                    <mxGeometry relative="1" as="geometry">
                        <mxPoint x="330" y="70" as="targetPoint"/>
                    </mxGeometry>
                </mxCell>
                <mxCell id="Cm4mgrObaXkl3aYoiadv-110" style="edgeStyle=orthogonalEdgeStyle;html=1;entryX=1.001;entryY=0.634;entryDx=0;entryDy=0;entryPerimeter=0;fontSize=19;fontColor=#999900;" parent="Cm4mgrObaXkl3aYoiadv-97" source="88" target="47" edge="1">
                    <mxGeometry relative="1" as="geometry">
                        <Array as="points">
                            <mxPoint x="830" y="212"/>
                        </Array>
                    </mxGeometry>
                </mxCell>
                <mxCell id="88" value="Nhận diện và phân loại" style="rounded=0;whiteSpace=wrap;html=1;fillColor=#cdeb8b;strokeColor=#36393d;fontColor=#000000;fontStyle=1;" parent="Cm4mgrObaXkl3aYoiadv-97" vertex="1">
                    <mxGeometry x="790" y="90" width="140" height="100" as="geometry"/>
                </mxCell>
                <mxCell id="91" value="DB" style="shape=cylinder3;whiteSpace=wrap;html=1;boundedLbl=1;backgroundOutline=1;size=15;fillColor=#ffff88;strokeColor=#36393d;fontColor=#000000;rounded=0;fontStyle=1;fontSize=21;" parent="Cm4mgrObaXkl3aYoiadv-97" vertex="1">
                    <mxGeometry x="55" y="290" width="150" height="110" as="geometry"/>
                </mxCell>
                <mxCell id="95" style="edgeStyle=none;html=1;entryX=1;entryY=0;entryDx=0;entryDy=52.5;entryPerimeter=0;" parent="Cm4mgrObaXkl3aYoiadv-97" source="54" target="91" edge="1">
                    <mxGeometry relative="1" as="geometry"/>
                </mxCell>
                <mxCell id="94" style="edgeStyle=none;html=1;" parent="Cm4mgrObaXkl3aYoiadv-97" source="56" target="91" edge="1">
                    <mxGeometry relative="1" as="geometry"/>
                </mxCell>
                <mxCell id="92" value="DB" style="shape=cylinder3;whiteSpace=wrap;html=1;boundedLbl=1;backgroundOutline=1;size=15;fillColor=#ffff88;strokeColor=#36393d;fontColor=#000000;rounded=0;fontStyle=1;" parent="Cm4mgrObaXkl3aYoiadv-97" vertex="1">
                    <mxGeometry x="550" y="290" width="150" height="110" as="geometry"/>
                </mxCell>
                <mxCell id="93" style="edgeStyle=none;html=1;" parent="Cm4mgrObaXkl3aYoiadv-97" source="47" target="92" edge="1">
                    <mxGeometry relative="1" as="geometry"/>
                </mxCell>
                <mxCell id="Cm4mgrObaXkl3aYoiadv-115" value="Hỉnh ảnh&lt;br&gt;&lt;span style=&quot;font-weight: normal;&quot;&gt;&lt;font style=&quot;font-size: 19px;&quot;&gt;(Camera)&lt;/font&gt;&lt;/span&gt;" style="rounded=0;whiteSpace=wrap;html=1;fillColor=#cdeb8b;strokeColor=#36393d;fontStyle=1;fontColor=#000000;fontSize=21;" parent="Cm4mgrObaXkl3aYoiadv-97" vertex="1">
                    <mxGeometry x="20" y="20" width="220" height="100" as="geometry"/>
                </mxCell>
                <mxCell id="Cm4mgrObaXkl3aYoiadv-126" style="edgeStyle=orthogonalEdgeStyle;html=1;entryX=0.5;entryY=0;entryDx=0;entryDy=0;fontSize=21;fontColor=#999900;" parent="Cm4mgrObaXkl3aYoiadv-97" source="Cm4mgrObaXkl3aYoiadv-118" target="Cm4mgrObaXkl3aYoiadv-119" edge="1">
                    <mxGeometry relative="1" as="geometry"/>
                </mxCell>
                <mxCell id="Cm4mgrObaXkl3aYoiadv-118" value="&lt;br style=&quot;font-size: 21px;&quot;&gt;Hiển thị hình ảnh thu được&lt;br style=&quot;font-size: 21px;&quot;&gt;&lt;font style=&quot;font-size: 19px; font-weight: normal;&quot;&gt;(Streamlit)&lt;/font&gt;" style="rounded=0;whiteSpace=wrap;html=1;fillColor=#cdeb8b;strokeColor=#36393d;fontColor=#000000;fontStyle=1;fontSize=21;" parent="Cm4mgrObaXkl3aYoiadv-97" vertex="1">
                    <mxGeometry x="330" y="20" width="390" height="100" as="geometry"/>
                </mxCell>
                <mxCell id="Cm4mgrObaXkl3aYoiadv-129" style="edgeStyle=orthogonalEdgeStyle;html=1;entryX=0;entryY=0.5;entryDx=0;entryDy=0;fontSize=19;fontColor=#999900;" parent="Cm4mgrObaXkl3aYoiadv-97" source="Cm4mgrObaXkl3aYoiadv-119" target="Cm4mgrObaXkl3aYoiadv-120" edge="1">
                    <mxGeometry relative="1" as="geometry"/>
                </mxCell>
                <mxCell id="Cm4mgrObaXkl3aYoiadv-119" value="Nhận diện và phân loại" style="rounded=0;whiteSpace=wrap;html=1;fillColor=#cdeb8b;strokeColor=#36393d;fontColor=#000000;fontStyle=1;fontSize=21;" parent="Cm4mgrObaXkl3aYoiadv-97" vertex="1">
                    <mxGeometry x="790" y="90" width="140" height="100" as="geometry"/>
                </mxCell>
                <mxCell id="Cm4mgrObaXkl3aYoiadv-127" style="edgeStyle=orthogonalEdgeStyle;html=1;entryX=0.5;entryY=0;entryDx=0;entryDy=0;fontSize=19;fontColor=#999900;" parent="Cm4mgrObaXkl3aYoiadv-97" source="Cm4mgrObaXkl3aYoiadv-120" target="Cm4mgrObaXkl3aYoiadv-122" edge="1">
                    <mxGeometry relative="1" as="geometry"/>
                </mxCell>
                <mxCell id="Cm4mgrObaXkl3aYoiadv-128" style="edgeStyle=orthogonalEdgeStyle;html=1;fontSize=19;fontColor=#999900;" parent="Cm4mgrObaXkl3aYoiadv-97" source="Cm4mgrObaXkl3aYoiadv-120" target="Cm4mgrObaXkl3aYoiadv-121" edge="1">
                    <mxGeometry relative="1" as="geometry"/>
                </mxCell>
                <mxCell id="Cm4mgrObaXkl3aYoiadv-120" value="Nhận và xử lý&lt;br&gt;&lt;span style=&quot;font-weight: normal;&quot;&gt;(Arduino)&lt;/span&gt;" style="whiteSpace=wrap;html=1;rounded=0;fillColor=#eeeeee;strokeColor=#36393d;fontColor=#000000;fontStyle=1;fontSize=21;" parent="Cm4mgrObaXkl3aYoiadv-97" vertex="1">
                    <mxGeometry x="990" y="90" width="230" height="100" as="geometry"/>
                </mxCell>
                <mxCell id="Cm4mgrObaXkl3aYoiadv-121" value="Chạy động cơ&lt;br&gt;&lt;span style=&quot;font-weight: normal;&quot;&gt;(Servo)&lt;/span&gt;" style="ellipse;whiteSpace=wrap;html=1;rounded=0;dashed=1;strokeColor=#36393d;fontFamily=Helvetica;fontSize=21;fontColor=#000000;fillColor=#eeeeee;fontStyle=1;" parent="Cm4mgrObaXkl3aYoiadv-97" vertex="1">
                    <mxGeometry x="1130" y="277" width="230" height="90" as="geometry"/>
                </mxCell>
                <mxCell id="Cm4mgrObaXkl3aYoiadv-122" value="Hiển thị tên loại rác&lt;br&gt;&lt;span style=&quot;font-weight: normal;&quot;&gt;&lt;font style=&quot;font-size: 19px;&quot;&gt;(LCD)&lt;/font&gt;&lt;/span&gt;" style="ellipse;whiteSpace=wrap;html=1;rounded=0;dashed=1;strokeColor=#36393d;fontFamily=Helvetica;fontSize=21;fontColor=#000000;fillColor=#eeeeee;fontStyle=1;" parent="Cm4mgrObaXkl3aYoiadv-97" vertex="1">
                    <mxGeometry x="850" y="277" width="230" height="93" as="geometry"/>
                </mxCell>
                <mxCell id="Cm4mgrObaXkl3aYoiadv-123" value="DB" style="shape=cylinder3;whiteSpace=wrap;html=1;boundedLbl=1;backgroundOutline=1;size=15;fillColor=#ffff88;strokeColor=#36393d;fontColor=#000000;rounded=0;fontStyle=1;fontSize=21;" parent="Cm4mgrObaXkl3aYoiadv-97" vertex="1">
                    <mxGeometry x="550" y="290" width="150" height="110" as="geometry"/>
                </mxCell>
                <mxCell id="Cm4mgrObaXkl3aYoiadv-124" value="Ghi nhận lịch sử" style="rounded=0;whiteSpace=wrap;html=1;fillColor=#ffff88;strokeColor=#36393d;fontStyle=1;fontColor=#000000;fontSize=21;" parent="Cm4mgrObaXkl3aYoiadv-97" vertex="1">
                    <mxGeometry x="530" y="162" width="190" height="88" as="geometry"/>
                </mxCell>
                <mxCell id="Cm4mgrObaXkl3aYoiadv-125" value="Steamlit hiển thị lịch sử&lt;br style=&quot;font-size: 21px;&quot;&gt;" style="rounded=0;whiteSpace=wrap;html=1;fillColor=#ffff88;strokeColor=#36393d;fontColor=#000000;fontStyle=1;fontSize=21;" parent="Cm4mgrObaXkl3aYoiadv-97" vertex="1">
                    <mxGeometry x="330" y="162" width="160" height="88" as="geometry"/>
                </mxCell>
                <mxCell id="Cm4mgrObaXkl3aYoiadv-106" value="" style="group" parent="1" vertex="1" connectable="0">
                    <mxGeometry x="-530" y="30" width="1080" height="540" as="geometry"/>
                </mxCell>
                <mxCell id="2" value="" style="rounded=0;whiteSpace=wrap;html=1;dashed=1;fillColor=none;" parent="Cm4mgrObaXkl3aYoiadv-106" vertex="1">
                    <mxGeometry width="1080" height="540" as="geometry"/>
                </mxCell>
                <mxCell id="61" value="" style="rounded=0;whiteSpace=wrap;html=1;dashed=1;strokeColor=#666666;fontFamily=Helvetica;fontSize=12;fontColor=#333333;fillColor=#f5f5f5;" parent="Cm4mgrObaXkl3aYoiadv-106" vertex="1">
                    <mxGeometry x="760" y="20" width="300" height="260" as="geometry"/>
                </mxCell>
                <mxCell id="58" value="" style="rounded=0;whiteSpace=wrap;html=1;dashed=1;strokeColor=#82b366;fontFamily=Helvetica;fontSize=12;fillColor=#d5e8d4;" parent="Cm4mgrObaXkl3aYoiadv-106" vertex="1">
                    <mxGeometry x="10" y="20" width="750" height="260" as="geometry"/>
                </mxCell>
                <mxCell id="5" value="Thu thập dữ liệu&lt;br&gt;&lt;span style=&quot;font-weight: normal;&quot;&gt;&lt;font style=&quot;font-size: 19px;&quot;&gt;(hình ảnh)&lt;/font&gt;&lt;/span&gt;" style="rounded=0;whiteSpace=wrap;html=1;fillColor=#cce5ff;strokeColor=#36393d;fontStyle=1;fontColor=#000000;fontSize=21;" parent="Cm4mgrObaXkl3aYoiadv-106" vertex="1">
                    <mxGeometry x="20" y="130" width="170" height="105" as="geometry"/>
                </mxCell>
                <mxCell id="7" value="Tiền xử lý" style="rounded=0;whiteSpace=wrap;html=1;fillColor=#cce5ff;strokeColor=#36393d;fontColor=#000000;fontStyle=1;fontSize=21;" parent="Cm4mgrObaXkl3aYoiadv-106" vertex="1">
                    <mxGeometry x="450" y="130" width="120" height="105" as="geometry"/>
                </mxCell>
                <mxCell id="9" value="Tăng cường dữ liệu" style="rounded=0;whiteSpace=wrap;html=1;fillColor=#cce5ff;strokeColor=#36393d;fontColor=#000000;fontStyle=1;fontSize=21;" parent="Cm4mgrObaXkl3aYoiadv-106" vertex="1">
                    <mxGeometry x="600" y="130" width="130" height="105" as="geometry"/>
                </mxCell>
                <mxCell id="10" value="" style="edgeStyle=none;html=1;" parent="Cm4mgrObaXkl3aYoiadv-106" source="7" target="9" edge="1">
                    <mxGeometry relative="1" as="geometry"/>
                </mxCell>
                <mxCell id="11" value="Xây dựng mô hình huấn luyện" style="whiteSpace=wrap;html=1;rounded=0;fillColor=#ffcc99;strokeColor=#36393d;fontStyle=1;fontColor=#000000;fontSize=21;" parent="Cm4mgrObaXkl3aYoiadv-106" vertex="1">
                    <mxGeometry x="797.5" y="20" width="220" height="90" as="geometry"/>
                </mxCell>
                <mxCell id="13" value="Huấn luyện mô hình" style="whiteSpace=wrap;html=1;rounded=0;fillColor=#ffcc99;strokeColor=#36393d;fontColor=#000000;fontStyle=1;fontSize=21;" parent="Cm4mgrObaXkl3aYoiadv-106" vertex="1">
                    <mxGeometry x="800" y="137.5" width="215" height="90" as="geometry"/>
                </mxCell>
                <mxCell id="12" value="" style="edgeStyle=orthogonalEdgeStyle;html=1;fontFamily=Helvetica;entryX=0;entryY=0.5;entryDx=0;entryDy=0;" parent="Cm4mgrObaXkl3aYoiadv-106" source="9" target="13" edge="1">
                    <mxGeometry relative="1" as="geometry"/>
                </mxCell>
                <mxCell id="14" value="" style="edgeStyle=orthogonalEdgeStyle;html=1;" parent="Cm4mgrObaXkl3aYoiadv-106" source="11" target="13" edge="1">
                    <mxGeometry relative="1" as="geometry"/>
                </mxCell>
                <mxCell id="59" value="Roboflow" style="text;html=1;strokeColor=none;fillColor=none;align=center;verticalAlign=middle;whiteSpace=wrap;rounded=0;dashed=1;fontFamily=Helvetica;fontSize=21;fontColor=#000099;fontStyle=1" parent="Cm4mgrObaXkl3aYoiadv-106" vertex="1">
                    <mxGeometry x="669" y="250" width="70" height="30" as="geometry"/>
                </mxCell>
                <mxCell id="62" value="Google Colab" style="text;html=1;strokeColor=none;fillColor=none;align=center;verticalAlign=middle;whiteSpace=wrap;rounded=0;dashed=1;fontFamily=Helvetica;fontSize=21;fontColor=#999900;fontStyle=1" parent="Cm4mgrObaXkl3aYoiadv-106" vertex="1">
                    <mxGeometry x="910" y="250" width="150" height="30" as="geometry"/>
                </mxCell>
                <mxCell id="Cm4mgrObaXkl3aYoiadv-109" style="edgeStyle=orthogonalEdgeStyle;html=1;fontSize=19;fontColor=#999900;" parent="Cm4mgrObaXkl3aYoiadv-106" source="67" target="Cm4mgrObaXkl3aYoiadv-107" edge="1">
                    <mxGeometry relative="1" as="geometry"/>
                </mxCell>
                <mxCell id="67" value="Nhận diện và phân loại" style="rounded=0;whiteSpace=wrap;html=1;fillColor=#ffff88;strokeColor=#36393d;fontColor=#000000;fontStyle=1;fontSize=21;" parent="Cm4mgrObaXkl3aYoiadv-106" vertex="1">
                    <mxGeometry x="797.5" y="300" width="220" height="100" as="geometry"/>
                </mxCell>
                <mxCell id="69" style="edgeStyle=orthogonalEdgeStyle;html=1;entryX=0.5;entryY=0;entryDx=0;entryDy=0;fontFamily=Helvetica;fontSize=12;fontColor=default;" parent="Cm4mgrObaXkl3aYoiadv-106" source="13" target="67" edge="1">
                    <mxGeometry relative="1" as="geometry"/>
                </mxCell>
                <mxCell id="Cm4mgrObaXkl3aYoiadv-100" style="edgeStyle=orthogonalEdgeStyle;html=1;fontSize=21;fontColor=#999900;" parent="Cm4mgrObaXkl3aYoiadv-106" source="68" target="67" edge="1">
                    <mxGeometry relative="1" as="geometry"/>
                </mxCell>
                <mxCell id="68" value="Tiến hành thực nghiệm&lt;br&gt;&lt;font style=&quot;font-size: 19px; font-weight: normal;&quot;&gt;(Streamlit)&lt;/font&gt;" style="rounded=0;whiteSpace=wrap;html=1;fillColor=#ffff88;strokeColor=#36393d;fontStyle=1;fontColor=#000000;fontSize=21;" parent="Cm4mgrObaXkl3aYoiadv-106" vertex="1">
                    <mxGeometry x="390" y="300" width="240" height="100" as="geometry"/>
                </mxCell>
                <mxCell id="78" style="edgeStyle=orthogonalEdgeStyle;html=1;entryX=0;entryY=0.5;entryDx=0;entryDy=0;fontFamily=Helvetica;fontSize=12;fontColor=default;endArrow=classic;endFill=1;" parent="Cm4mgrObaXkl3aYoiadv-106" source="76" target="7" edge="1">
                    <mxGeometry relative="1" as="geometry"/>
                </mxCell>
                <mxCell id="Cm4mgrObaXkl3aYoiadv-102" style="edgeStyle=orthogonalEdgeStyle;html=1;fontSize=21;fontColor=#999900;entryX=0.001;entryY=0.602;entryDx=0;entryDy=0;entryPerimeter=0;" parent="Cm4mgrObaXkl3aYoiadv-106" source="76" target="68" edge="1">
                    <mxGeometry relative="1" as="geometry"/>
                </mxCell>
                <mxCell id="76" value="Phân chia dữ liệu&lt;br&gt;&lt;font style=&quot;font-size: 20px; font-weight: normal;&quot;&gt;(train, valid, test)&lt;/font&gt;" style="rounded=0;whiteSpace=wrap;html=1;fillColor=#cce5ff;strokeColor=#36393d;fontColor=#000000;fontStyle=1;fontSize=21;" parent="Cm4mgrObaXkl3aYoiadv-106" vertex="1">
                    <mxGeometry x="220" y="130" width="190" height="105" as="geometry"/>
                </mxCell>
                <mxCell id="77" value="" style="edgeStyle=orthogonalEdgeStyle;html=1;fontFamily=Helvetica;fontSize=12;fontColor=default;endArrow=classic;endFill=1;" parent="Cm4mgrObaXkl3aYoiadv-106" source="5" target="76" edge="1">
                    <mxGeometry relative="1" as="geometry"/>
                </mxCell>
                <mxCell id="Cm4mgrObaXkl3aYoiadv-107" value="Chọn mô hình tốt nhất" style="rounded=0;whiteSpace=wrap;html=1;fillColor=#ffff88;strokeColor=#36393d;fontColor=#000000;fontStyle=1;fontSize=21;" parent="Cm4mgrObaXkl3aYoiadv-106" vertex="1">
                    <mxGeometry x="797.5" y="430" width="220" height="100" as="geometry"/>
                </mxCell>
            </root>
        </mxGraphModel>
    </diagram>
</mxfile>